<svg width="415" height="46" viewBox="0 0 415 46" fill="none" xmlns="http://www.w3.org/2000/svg">
<path d="M17.9992 17.0931L22.5203 14.4857L19.9967 10.117H43.7306L31.8675 30.6716L29.3438 26.2954L24.8228 28.9105L31.8675 41.1091L52.7727 4.89453H10.9545L17.9992 17.0931Z" fill="url(#paint0_linear_84_6844)"/>
<path d="M66.2661 36V11.9127H74.061C74.2506 11.9127 74.6409 11.9183 75.2319 11.9295C75.8229 11.9406 76.3916 11.9796 76.9381 12.0465C78.8784 12.2807 80.5233 12.9554 81.8726 14.0705C83.222 15.1857 84.2479 16.6019 84.9504 18.3193C85.653 20.0366 86.0043 21.9156 86.0043 23.9564C86.0043 25.9971 85.653 27.8761 84.9504 29.5935C84.2479 31.3108 83.222 32.727 81.8726 33.8422C80.5233 34.9573 78.8784 35.632 76.9381 35.8662C76.3916 35.9331 75.8229 35.9721 75.2319 35.9833C74.6409 35.9944 74.2506 36 74.061 36H66.2661ZM70.8828 31.7178H74.061C74.3621 31.7178 74.7691 31.7122 75.2821 31.7011C75.795 31.6788 76.2578 31.6286 76.6704 31.5505C77.7187 31.3387 78.5718 30.848 79.2297 30.0785C79.8988 29.3091 80.3895 28.3835 80.7017 27.3018C81.0251 26.2201 81.1868 25.105 81.1868 23.9564C81.1868 22.752 81.0195 21.609 80.685 20.5273C80.3616 19.4456 79.8653 18.5312 79.1963 17.784C78.5272 17.0368 77.6852 16.5629 76.6704 16.3622C76.2578 16.273 75.795 16.2228 75.2821 16.2116C74.7691 16.2005 74.3621 16.1949 74.061 16.1949H70.8828V31.7178ZM102.329 36V27.4691C102.329 27.0565 102.306 26.5324 102.262 25.8967C102.217 25.2499 102.078 24.6032 101.844 23.9564C101.609 23.3096 101.225 22.7687 100.689 22.3338C100.165 21.8989 99.4182 21.6815 98.448 21.6815C98.0577 21.6815 97.6396 21.7428 97.1935 21.8655C96.7474 21.9881 96.3293 22.2279 95.9389 22.5847C95.5486 22.9304 95.2253 23.4434 94.9688 24.1236C94.7234 24.8039 94.6008 25.7072 94.6008 26.8335L91.9913 25.5956C91.9913 24.1682 92.2813 22.8301 92.8611 21.5811C93.441 20.3321 94.3108 19.3229 95.4706 18.5535C96.6415 17.784 98.1135 17.3993 99.8866 17.3993C101.303 17.3993 102.457 17.639 103.349 18.1185C104.241 18.5981 104.933 19.2058 105.423 19.9418C105.925 20.6778 106.282 21.4473 106.494 22.2502C106.706 23.0419 106.834 23.7668 106.879 24.4247C106.923 25.0827 106.945 25.5622 106.945 25.8633V36H102.329ZM89.984 36V11.9127H94.032V24.2909H94.6008V36H89.984ZM116.304 36.5018C115.011 36.5018 113.912 36.2565 113.009 35.7658C112.117 35.264 111.437 34.6005 110.968 33.7753C110.511 32.9389 110.282 32.0189 110.282 31.0153C110.282 30.1789 110.411 29.415 110.667 28.7236C110.924 28.0322 111.336 27.4245 111.905 26.9004C112.485 26.3651 113.26 25.919 114.23 25.5622C114.899 25.3168 115.696 25.0994 116.622 24.9098C117.548 24.7202 118.596 24.5418 119.767 24.3745C120.938 24.1961 122.226 24.001 123.631 23.7891L121.991 24.6924C121.991 23.6218 121.735 22.8356 121.222 22.3338C120.709 21.832 119.85 21.5811 118.646 21.5811C117.977 21.5811 117.28 21.7428 116.555 22.0662C115.83 22.3896 115.323 22.9639 115.033 23.7891L110.918 22.4844C111.375 20.9901 112.234 19.7745 113.494 18.8378C114.754 17.9011 116.471 17.4327 118.646 17.4327C120.241 17.4327 121.657 17.6781 122.895 18.1687C124.133 18.6594 125.069 19.5069 125.705 20.7113C126.062 21.3804 126.274 22.0495 126.341 22.7185C126.407 23.3876 126.441 24.1348 126.441 24.96V36H122.46V32.2865L123.029 33.056C122.148 34.2715 121.194 35.1525 120.168 35.6989C119.153 36.2342 117.865 36.5018 116.304 36.5018ZM117.274 32.9222C118.111 32.9222 118.813 32.7772 119.382 32.4873C119.962 32.1862 120.419 31.8461 120.754 31.4669C121.099 31.0878 121.333 30.7699 121.456 30.5135C121.69 30.0228 121.824 29.4541 121.858 28.8073C121.902 28.1493 121.925 27.6029 121.925 27.168L123.263 27.5025C121.913 27.7256 120.821 27.9152 119.984 28.0713C119.148 28.2162 118.473 28.3501 117.96 28.4727C117.447 28.5954 116.996 28.7292 116.605 28.8742C116.159 29.0526 115.797 29.2478 115.518 29.4596C115.25 29.6604 115.05 29.8834 114.916 30.1287C114.793 30.3741 114.732 30.6473 114.732 30.9484C114.732 31.361 114.832 31.7178 115.033 32.0189C115.245 32.3088 115.54 32.5319 115.919 32.688C116.299 32.8441 116.75 32.9222 117.274 32.9222ZM143.101 36V27.4691C143.101 27.0565 143.079 26.5324 143.035 25.8967C142.99 25.2499 142.851 24.6032 142.616 23.9564C142.382 23.3096 141.997 22.7687 141.462 22.3338C140.938 21.8989 140.191 21.6815 139.221 21.6815C138.83 21.6815 138.412 21.7428 137.966 21.8655C137.52 21.9881 137.102 22.2279 136.712 22.5847C136.321 22.9304 135.998 23.4434 135.741 24.1236C135.496 24.8039 135.373 25.7072 135.373 26.8335L132.764 25.5956C132.764 24.1682 133.054 22.8301 133.634 21.5811C134.214 20.3321 135.084 19.3229 136.243 18.5535C137.414 17.784 138.886 17.3993 140.659 17.3993C142.076 17.3993 143.23 17.639 144.122 18.1185C145.014 18.5981 145.705 19.2058 146.196 19.9418C146.698 20.6778 147.055 21.4473 147.267 22.2502C147.478 23.0419 147.607 23.7668 147.651 24.4247C147.696 25.0827 147.718 25.5622 147.718 25.8633V36H143.101ZM130.757 36V17.9345H134.805V23.9229H135.373V36H130.757ZM173.804 36V25.328C173.804 24.1348 173.52 23.2092 172.951 22.5513C172.393 21.8822 171.618 21.5476 170.626 21.5476C169.99 21.5476 169.438 21.6982 168.97 21.9993C168.502 22.2892 168.134 22.7018 167.866 23.2371C167.609 23.7612 167.481 24.369 167.481 25.0604L165.574 23.7891C165.574 22.5513 165.864 21.4584 166.444 20.5105C167.035 19.5627 167.821 18.8267 168.803 18.3025C169.795 17.7673 170.894 17.4996 172.098 17.4996C174.161 17.4996 175.717 18.113 176.765 19.3396C177.824 20.5552 178.354 22.1498 178.354 24.1236V36H173.804ZM152.025 36V17.9345H156.04V23.9229H156.609V36H152.025ZM162.931 36V25.328C162.931 24.1348 162.647 23.2092 162.078 22.5513C161.521 21.8822 160.746 21.5476 159.753 21.5476C158.805 21.5476 158.041 21.8766 157.462 22.5345C156.893 23.1813 156.609 24.0233 156.609 25.0604L154.702 23.7222C154.702 22.5401 154.997 21.4807 155.588 20.544C156.179 19.6073 156.971 18.8657 157.963 18.3193C158.967 17.7728 160.088 17.4996 161.326 17.4996C162.742 17.4996 163.902 17.8007 164.805 18.4029C165.719 19.0051 166.394 19.808 166.829 20.8116C167.264 21.8153 167.481 22.9193 167.481 24.1236V36H162.931ZM187.722 36.5018C186.428 36.5018 185.33 36.2565 184.426 35.7658C183.534 35.264 182.854 34.6005 182.386 33.7753C181.929 32.9389 181.7 32.0189 181.7 31.0153C181.7 30.1789 181.828 29.415 182.085 28.7236C182.341 28.0322 182.754 27.4245 183.322 26.9004C183.902 26.3651 184.677 25.919 185.648 25.5622C186.317 25.3168 187.114 25.0994 188.04 24.9098C188.965 24.7202 190.013 24.5418 191.184 24.3745C192.355 24.1961 193.643 24.001 195.048 23.7891L193.409 24.6924C193.409 23.6218 193.153 22.8356 192.64 22.3338C192.127 21.832 191.268 21.5811 190.064 21.5811C189.394 21.5811 188.698 21.7428 187.973 22.0662C187.248 22.3896 186.74 22.9639 186.45 23.7891L182.336 22.4844C182.793 20.9901 183.651 19.7745 184.912 18.8378C186.172 17.9011 187.889 17.4327 190.064 17.4327C191.658 17.4327 193.074 17.6781 194.312 18.1687C195.55 18.6594 196.487 19.5069 197.122 20.7113C197.479 21.3804 197.691 22.0495 197.758 22.7185C197.825 23.3876 197.858 24.1348 197.858 24.96V36H193.877V32.2865L194.446 33.056C193.565 34.2715 192.612 35.1525 191.586 35.6989C190.571 36.2342 189.283 36.5018 187.722 36.5018ZM188.692 32.9222C189.528 32.9222 190.231 32.7772 190.8 32.4873C191.379 32.1862 191.837 31.8461 192.171 31.4669C192.517 31.0878 192.751 30.7699 192.874 30.5135C193.108 30.0228 193.242 29.4541 193.275 28.8073C193.32 28.1493 193.342 27.6029 193.342 27.168L194.68 27.5025C193.331 27.7256 192.238 27.9152 191.402 28.0713C190.565 28.2162 189.891 28.3501 189.378 28.4727C188.865 28.5954 188.413 28.7292 188.023 28.8742C187.577 29.0526 187.214 29.2478 186.936 29.4596C186.668 29.6604 186.467 29.8834 186.333 30.1287C186.211 30.3741 186.149 30.6473 186.149 30.9484C186.149 31.361 186.25 31.7178 186.45 32.0189C186.662 32.3088 186.958 32.5319 187.337 32.688C187.716 32.8441 188.168 32.9222 188.692 32.9222ZM214.519 36V27.4691C214.519 27.0565 214.497 26.5324 214.452 25.8967C214.408 25.2499 214.268 24.6032 214.034 23.9564C213.8 23.3096 213.415 22.7687 212.88 22.3338C212.356 21.8989 211.609 21.6815 210.638 21.6815C210.248 21.6815 209.83 21.7428 209.384 21.8655C208.938 21.9881 208.52 22.2279 208.129 22.5847C207.739 22.9304 207.416 23.4434 207.159 24.1236C206.914 24.8039 206.791 25.7072 206.791 26.8335L204.182 25.5956C204.182 24.1682 204.472 22.8301 205.051 21.5811C205.631 20.3321 206.501 19.3229 207.661 18.5535C208.832 17.784 210.304 17.3993 212.077 17.3993C213.493 17.3993 214.647 17.639 215.539 18.1185C216.432 18.5981 217.123 19.2058 217.614 19.9418C218.115 20.6778 218.472 21.4473 218.684 22.2502C218.896 23.0419 219.024 23.7668 219.069 24.4247C219.114 25.0827 219.136 25.5622 219.136 25.8633V36H214.519ZM202.174 36V17.9345H206.222V23.9229H206.791V36H202.174ZM230.174 36V11.9127H240.344C240.578 11.9127 240.89 11.9239 241.281 11.9462C241.682 11.9573 242.039 11.9908 242.351 12.0465C243.79 12.2696 244.966 12.7435 245.881 13.4684C246.806 14.1932 247.486 15.1076 247.921 16.2116C248.356 17.3045 248.574 18.5256 248.574 19.8749C248.574 21.2242 248.351 22.4509 247.905 23.5549C247.47 24.6478 246.789 25.5566 245.864 26.2815C244.95 27.0063 243.779 27.4802 242.351 27.7033C242.039 27.7479 241.682 27.7813 241.281 27.8036C240.879 27.8259 240.567 27.8371 240.344 27.8371H234.724V36H230.174ZM234.724 23.5884H240.143C240.377 23.5884 240.634 23.5772 240.913 23.5549C241.191 23.5326 241.448 23.488 241.682 23.4211C242.295 23.2538 242.769 22.975 243.104 22.5847C243.438 22.1833 243.667 21.7428 243.79 21.2633C243.924 20.7726 243.99 20.3098 243.99 19.8749C243.99 19.44 243.924 18.9828 243.79 18.5033C243.667 18.0126 243.438 17.5721 243.104 17.1818C242.769 16.7804 242.295 16.496 241.682 16.3287C241.448 16.2618 241.191 16.2172 240.913 16.1949C240.634 16.1726 240.377 16.1615 240.143 16.1615H234.724V23.5884ZM251.932 36V17.9345H255.947V22.3505L255.512 21.7818C255.746 21.1573 256.058 20.5886 256.449 20.0756C256.839 19.5627 257.318 19.1389 257.887 18.8044C258.322 18.5367 258.796 18.3304 259.309 18.1855C259.822 18.0293 260.352 17.9345 260.898 17.9011C261.444 17.8565 261.991 17.8676 262.537 17.9345V22.1833C262.036 22.0272 261.45 21.977 260.781 22.0327C260.123 22.0773 259.526 22.2279 258.991 22.4844C258.456 22.7297 258.004 23.0587 257.636 23.4713C257.268 23.8727 256.989 24.3522 256.8 24.9098C256.61 25.4562 256.516 26.0752 256.516 26.7665V36H251.932ZM273.79 36.5018C271.938 36.5018 270.305 36.1059 268.888 35.3142C267.483 34.5113 266.379 33.4128 265.576 32.0189C264.785 30.6138 264.389 29.008 264.389 27.2015C264.389 25.2276 264.779 23.5103 265.56 22.0495C266.34 20.5886 267.416 19.4567 268.788 18.6538C270.16 17.8398 271.738 17.4327 273.522 17.4327C275.418 17.4327 277.029 17.8788 278.356 18.7709C279.683 19.663 280.664 20.9176 281.3 22.5345C281.936 24.1515 282.159 26.0528 281.969 28.2385H277.47V26.5658C277.47 24.7258 277.174 23.4044 276.583 22.6015C276.003 21.7874 275.05 21.3804 273.723 21.3804C272.173 21.3804 271.03 21.8543 270.294 22.8022C269.569 23.7389 269.206 25.1273 269.206 26.9673C269.206 28.6512 269.569 29.9559 270.294 30.8815C271.03 31.7959 272.106 32.2531 273.522 32.2531C274.414 32.2531 275.178 32.0579 275.814 31.6676C276.449 31.2773 276.934 30.7142 277.269 29.9782L281.819 31.2829C281.138 32.9333 280.062 34.2158 278.59 35.1302C277.129 36.0446 275.529 36.5018 273.79 36.5018ZM267.801 28.2385V24.8596H279.778V28.2385H267.801ZM293.708 36.5018C291.835 36.5018 290.229 36.0836 288.891 35.2473C287.553 34.4109 286.527 33.2735 285.813 31.8349C285.099 30.3964 284.743 28.7738 284.743 26.9673C284.743 25.1384 285.111 23.5047 285.847 22.0662C286.594 20.6276 287.642 19.4958 288.991 18.6705C290.341 17.8453 291.935 17.4327 293.775 17.4327C295.905 17.4327 297.689 17.9736 299.128 19.0553C300.578 20.1258 301.503 21.5922 301.905 23.4545L297.355 24.6589C297.087 23.7222 296.619 22.9918 295.95 22.4676C295.292 21.9435 294.545 21.6815 293.708 21.6815C292.749 21.6815 291.963 21.9156 291.35 22.384C290.736 22.8412 290.285 23.4713 289.995 24.2742C289.705 25.0659 289.56 25.9636 289.56 26.9673C289.56 28.5396 289.906 29.8165 290.597 30.7978C291.3 31.768 292.337 32.2531 293.708 32.2531C294.734 32.2531 295.515 32.0189 296.05 31.5505C296.585 31.0822 296.987 30.4131 297.255 29.5433L301.905 30.5135C301.392 32.4315 300.422 33.9091 298.994 34.9462C297.567 35.9833 295.805 36.5018 293.708 36.5018ZM305.095 15.4255V11.4109H309.645V15.4255H305.095ZM305.095 36V17.9345H309.645V36H305.095ZM322.622 36.5018C320.748 36.5018 319.142 36.0836 317.804 35.2473C316.466 34.4109 315.44 33.2735 314.726 31.8349C314.013 30.3964 313.656 28.7738 313.656 26.9673C313.656 25.1384 314.024 23.5047 314.76 22.0662C315.507 20.6276 316.555 19.4958 317.905 18.6705C319.254 17.8453 320.849 17.4327 322.689 17.4327C324.819 17.4327 326.603 17.9736 328.041 19.0553C329.491 20.1258 330.417 21.5922 330.818 23.4545L326.268 24.6589C326.001 23.7222 325.532 22.9918 324.863 22.4676C324.205 21.9435 323.458 21.6815 322.622 21.6815C321.663 21.6815 320.877 21.9156 320.263 22.384C319.65 22.8412 319.198 23.4713 318.908 24.2742C318.618 25.0659 318.473 25.9636 318.473 26.9673C318.473 28.5396 318.819 29.8165 319.51 30.7978C320.213 31.768 321.25 32.2531 322.622 32.2531C323.648 32.2531 324.428 32.0189 324.964 31.5505C325.499 31.0822 325.9 30.4131 326.168 29.5433L330.818 30.5135C330.305 32.4315 329.335 33.9091 327.908 34.9462C326.48 35.9833 324.718 36.5018 322.622 36.5018ZM338.855 36.5018C337.562 36.5018 336.463 36.2565 335.56 35.7658C334.668 35.264 333.988 34.6005 333.519 33.7753C333.062 32.9389 332.833 32.0189 332.833 31.0153C332.833 30.1789 332.962 29.415 333.218 28.7236C333.475 28.0322 333.887 27.4245 334.456 26.9004C335.036 26.3651 335.811 25.919 336.781 25.5622C337.45 25.3168 338.248 25.0994 339.173 24.9098C340.099 24.7202 341.147 24.5418 342.318 24.3745C343.489 24.1961 344.777 24.001 346.182 23.7891L344.543 24.6924C344.543 23.6218 344.286 22.8356 343.773 22.3338C343.26 21.832 342.401 21.5811 341.197 21.5811C340.528 21.5811 339.831 21.7428 339.106 22.0662C338.381 22.3896 337.874 22.9639 337.584 23.7891L333.469 22.4844C333.926 20.9901 334.785 19.7745 336.045 18.8378C337.305 17.9011 339.023 17.4327 341.197 17.4327C342.792 17.4327 344.208 17.6781 345.446 18.1687C346.684 18.6594 347.62 19.5069 348.256 20.7113C348.613 21.3804 348.825 22.0495 348.892 22.7185C348.959 23.3876 348.992 24.1348 348.992 24.96V36H345.011V32.2865L345.58 33.056C344.699 34.2715 343.745 35.1525 342.719 35.6989C341.704 36.2342 340.416 36.5018 338.855 36.5018ZM339.825 32.9222C340.662 32.9222 341.364 32.7772 341.933 32.4873C342.513 32.1862 342.97 31.8461 343.305 31.4669C343.65 31.0878 343.885 30.7699 344.007 30.5135C344.241 30.0228 344.375 29.4541 344.409 28.8073C344.453 28.1493 344.476 27.6029 344.476 27.168L345.814 27.5025C344.464 27.7256 343.372 27.9152 342.535 28.0713C341.699 28.2162 341.024 28.3501 340.511 28.4727C339.998 28.5954 339.547 28.7292 339.156 28.8742C338.71 29.0526 338.348 29.2478 338.069 29.4596C337.801 29.6604 337.601 29.8834 337.467 30.1287C337.344 30.3741 337.283 30.6473 337.283 30.9484C337.283 31.361 337.383 31.7178 337.584 32.0189C337.796 32.3088 338.091 32.5319 338.471 32.688C338.85 32.8441 339.301 32.9222 339.825 32.9222ZM360.4 36.5018C358.125 36.5018 356.285 35.9888 354.88 34.9629C353.486 33.9258 352.639 32.465 352.338 30.5804L356.988 29.8778C357.177 30.7253 357.596 31.3888 358.242 31.8684C358.9 32.3479 359.731 32.5876 360.735 32.5876C361.56 32.5876 362.196 32.4315 362.642 32.1193C363.088 31.7959 363.311 31.3498 363.311 30.7811C363.311 30.4242 363.222 30.1399 363.043 29.928C362.865 29.705 362.463 29.4875 361.839 29.2756C361.225 29.0638 360.266 28.785 358.962 28.4393C357.49 28.0601 356.313 27.6364 355.432 27.168C354.551 26.6996 353.916 26.1421 353.525 25.4953C353.135 24.8373 352.94 24.0456 352.94 23.12C352.94 21.9602 353.235 20.9566 353.826 20.1091C354.417 19.2504 355.248 18.5925 356.319 18.1353C357.401 17.6669 358.672 17.4327 360.133 17.4327C361.549 17.4327 362.803 17.6502 363.896 18.0851C364.989 18.52 365.87 19.1389 366.539 19.9418C367.219 20.7447 367.638 21.6926 367.794 22.7855L363.144 23.6218C363.065 22.9527 362.776 22.423 362.274 22.0327C361.772 21.6424 361.092 21.4138 360.233 21.3469C359.397 21.2912 358.722 21.4027 358.209 21.6815C357.707 21.9602 357.456 22.3617 357.456 22.8858C357.456 23.1981 357.562 23.4601 357.774 23.672C357.997 23.8839 358.449 24.1013 359.129 24.3244C359.82 24.5474 360.869 24.8373 362.274 25.1942C363.645 25.551 364.744 25.9692 365.569 26.4487C366.405 26.9171 367.013 27.4858 367.392 28.1549C367.771 28.8128 367.961 29.6102 367.961 30.5469C367.961 32.3981 367.292 33.8533 365.954 34.9127C364.616 35.9721 362.764 36.5018 360.4 36.5018ZM382.476 36C381.227 36.2342 380 36.3345 378.796 36.3011C377.603 36.2788 376.532 36.0725 375.584 35.6822C374.648 35.2807 373.934 34.6395 373.443 33.7585C372.997 32.9333 372.763 32.097 372.741 31.2495C372.718 30.3908 372.707 29.4206 372.707 28.3389V12.9164H377.257V28.0713C377.257 28.7738 377.263 29.4095 377.274 29.9782C377.296 30.5358 377.413 30.9818 377.625 31.3164C378.027 31.952 378.668 32.2977 379.549 32.3535C380.43 32.4092 381.406 32.3646 382.476 32.2196V36ZM369.63 21.4473V17.9345H382.476V21.4473H369.63Z" fill="url(#paint1_linear_84_6844)"/>
<defs>
<linearGradient id="paint0_linear_84_6844" x1="62.9771" y1="10.8971" x2="-7.91082" y2="16.6139" gradientUnits="userSpaceOnUse">
<stop offset="0.100157" stop-color="#191D23"/>
<stop offset="0.707994" stop-color="#00D090"/>
</linearGradient>
<linearGradient id="paint1_linear_84_6844" x1="327.398" y1="42.5151" x2="13.0949" y2="-34.1867" gradientUnits="userSpaceOnUse">
<stop stop-color="#0F172A"/>
<stop offset="1" stop-color="#00D995"/>
</linearGradient>
</defs>
</svg>
